<svg width="65" height="51" viewBox="0 0 65 51" fill="none" xmlns="http://www.w3.org/2000/svg">
<path d="M27.4729 24.1526C27.4729 25.5333 27.2718 26.7476 26.8697 27.7955C26.4843 28.8268 25.9564 29.7167 25.2862 30.4653C24.6159 31.2138 23.8367 31.8376 22.9486 32.3366C22.0772 32.819 21.1556 33.2099 20.1837 33.5093C19.2285 33.7921 18.2483 33.9917 17.2428 34.1081C16.2542 34.2246 15.3074 34.2828 14.4026 34.2828H0V32.0871L2.71462 31.8875C3.08327 31.8542 3.35138 31.7211 3.51895 31.4883C3.70327 31.2554 3.79544 31.0142 3.79544 30.7647V3.5181C3.79544 3.26859 3.70327 3.0274 3.51895 2.79452C3.35138 2.56164 3.08327 2.42857 2.71462 2.3953L0 2.19569V0H13.7742C15.8185 0 17.5696 0.191292 19.0275 0.573875C20.5021 0.939824 21.7086 1.48043 22.6469 2.19569C23.5853 2.91096 24.2724 3.77593 24.708 4.79061C25.1437 5.80528 25.3616 6.95303 25.3616 8.23386C25.3616 9.51468 25.1186 10.6042 24.6326 11.5024C24.1467 12.4007 23.5351 13.1575 22.7978 13.773C22.0605 14.3885 21.2561 14.8792 20.3848 15.2451C19.5134 15.6111 18.7007 15.8938 17.9466 16.0934C19.1029 16.0934 20.2423 16.2348 21.365 16.5176C22.5045 16.7838 23.5267 17.2329 24.4316 17.865C25.3364 18.4971 26.0654 19.3288 26.6183 20.3601C27.1881 21.3914 27.4729 22.6556 27.4729 24.1526ZM21.8677 24.5768C21.8677 22.248 21.1723 20.5431 19.7815 19.4618C18.3907 18.3806 16.3212 17.84 13.5731 17.84C13.1542 17.84 12.685 17.8567 12.1655 17.8899C11.6628 17.9232 11.1852 17.9565 10.7328 17.9897C10.2804 18.023 9.88657 18.0563 9.55143 18.0895C9.21629 18.1228 9.01521 18.1394 8.94818 18.1394V31.638C9.3671 31.6712 9.77765 31.6962 10.1798 31.7128C10.515 31.7461 10.8585 31.771 11.2104 31.7877C11.579 31.7877 11.889 31.7877 12.1404 31.7877C13.9501 31.7877 15.4666 31.638 16.6899 31.3386C17.9299 31.0391 18.9353 30.59 19.7061 29.9912C20.4769 29.3924 21.0299 28.6438 21.365 27.7456C21.7002 26.8474 21.8677 25.7911 21.8677 24.5768ZM19.8067 8.58317C19.8067 6.57045 19.1531 5.0318 17.8461 3.96722C16.5391 2.88601 14.5534 2.3454 11.889 2.3454C11.6209 2.3454 11.3277 2.35372 11.0093 2.37035C10.7077 2.38699 10.4144 2.40362 10.1295 2.42025C9.86143 2.43689 9.61846 2.45352 9.40062 2.47016C9.18278 2.48679 9.03197 2.49511 8.94818 2.49511V15.4198C9.18278 15.4364 9.41738 15.4447 9.65197 15.4447C9.85305 15.4614 10.0541 15.4697 10.2552 15.4697H10.8082C12.4839 15.4697 13.8915 15.32 15.0309 15.0205C16.1872 14.7045 17.1172 14.2554 17.821 13.6732C18.5247 13.091 19.0275 12.3757 19.3291 11.5274C19.6475 10.6624 19.8067 9.68102 19.8067 8.58317Z" fill="black"/>
<path d="M17.645 51V48.8043L20.6361 48.6047C21.0048 48.5714 21.2729 48.4384 21.4404 48.2055C21.6248 47.9726 21.7169 47.7314 21.7169 47.4819V20.2353C21.7169 19.9858 21.6248 19.7446 21.4404 19.5117C21.2729 19.2789 21.0048 19.1458 20.6361 19.1125L17.645 18.9129V16.7172H30.7908V18.9129L28.051 19.1125C27.6824 19.1458 27.3975 19.2789 27.1964 19.5117C27.0121 19.7446 26.92 19.9858 26.92 20.2353V48.5049H37.7282C37.9627 48.5049 38.1973 48.4217 38.4319 48.2554C38.6833 48.0724 38.8257 47.8645 38.8592 47.6316L39.6887 41.4936H42.6798V51H17.645Z" fill="black"/>
<path d="M62.3859 29.7666C62.0173 29.7999 61.7408 29.9247 61.5565 30.1409C61.3889 30.3405 61.3051 30.5734 61.3051 30.8395V42.6414C60.2662 43.024 59.1602 43.365 57.9872 43.6644C56.9818 43.9305 55.8256 44.1634 54.5186 44.363C53.2283 44.5793 51.8877 44.6874 50.4969 44.6874C48.5866 44.6874 46.8104 44.4628 45.1682 44.0137C43.5428 43.5646 42.0598 42.9325 40.7193 42.1174C39.3955 41.3023 38.2225 40.3376 37.2003 39.2231C36.1781 38.092 35.3152 36.8611 34.6114 35.5303C33.9243 34.1996 33.4049 32.7857 33.053 31.2886C32.7011 29.775 32.5251 28.228 32.5251 26.6477C32.5251 23.9697 32.9524 21.5328 33.807 19.3371C34.6616 17.1248 35.8933 15.2368 37.5019 13.6732C39.1106 12.1096 41.0628 10.9036 43.3585 10.0553C45.6709 9.19031 48.2682 8.75783 51.1504 8.75783C52.0218 8.75783 52.8596 8.80773 53.664 8.90753C54.485 8.9907 55.2726 9.10714 56.0267 9.25685C56.7807 9.38992 57.518 9.54795 58.2386 9.73092L60.4002 10.2798L61.2548 10.5044V18.7632H58.1632L57.3337 14.1722C57.2834 13.8728 57.1578 13.6233 56.9567 13.4237C56.7556 13.2074 56.5378 13.0494 56.3032 12.9496C56.2361 12.933 56.1356 12.8914 56.0015 12.8249C55.7334 12.7084 55.4234 12.5837 55.0715 12.4506C54.7196 12.3175 54.3259 12.1928 53.8902 12.0763C53.4713 11.9432 53.0104 11.8351 52.5077 11.752C52.0218 11.6688 51.5023 11.6272 50.9493 11.6272C49.0893 11.6272 47.3885 11.9516 45.8469 12.6003C44.3052 13.249 42.9814 14.1972 41.8755 15.4447C40.7695 16.6923 39.9065 18.2392 39.2865 20.0856C38.6833 21.9154 38.3817 24.0196 38.3817 26.3982C38.3817 28.8434 38.6917 31.0225 39.3117 32.9354C39.9317 34.8483 40.8114 36.4618 41.9509 37.7759C43.1071 39.09 44.4979 40.0964 46.1234 40.795C47.7488 41.477 49.5669 41.818 51.5777 41.818C52.1475 41.818 52.6921 41.7764 53.2115 41.6932C53.731 41.6101 54.1918 41.5269 54.594 41.4437C54.9961 41.3439 55.3313 41.2524 55.5994 41.1693C55.8675 41.0861 56.0351 41.0445 56.1021 41.0445V30.8395C56.1021 30.5734 56.0099 30.3405 55.8256 30.1409C55.658 29.9247 55.3899 29.7999 55.0213 29.7666L51.5777 29.5171V27.2965H65V29.5171L62.3859 29.7666Z" fill="black"/>
</svg>
